<?xml version="1.0" encoding="utf-8"?>
<svg xmlns="http://www.w3.org/2000/svg" width="1024" height="1024" viewBox="196.694 201.461 654.454 629.42" xmlns:bx="https://boxy-svg.com" preserveAspectRatio="none"><defs><bx:export><bx:file format="svg"/></bx:export></defs><path fill="#115C8E" d="M634.477 562.225C634.901 562.199 635.326 562.178 635.75 562.17C684.107 561.238 736.624 578.954 771.912 612.436C791.255 630.79 806.084 656.884 806.609 683.974C807.16 712.404 796.298 737.707 776.447 758.057C742.348 793.014 692.731 811.321 644.375 812.081C595.135 812.313 547.523 798.946 510.199 765.524C489.009 746.549 474.101 721.942 472.647 693.103C471.208 664.548 483.264 636.807 502.325 615.902C524.409 591.682 558.217 574.796 590.018 567.627C604.648 564.329 619.524 562.884 634.477 562.225Z"/><path fill="#E4FAFF" d="M547.686 643.347C549.516 645.359 557.509 669.349 559.928 674.345C569.858 675.555 580.054 675.697 590.045 676.058C582.9 682.805 573.946 688.335 565.915 693.967Q569.896 710.366 573.338 726.887C567.399 722.987 552.758 710.711 547.737 708.794L546.592 709.462C537.549 715.565 528.335 721.444 519.453 727.778C522.831 717.596 525.168 706.479 529.706 696.777C521.423 689.981 512.454 683.598 504.85 676.043Q520.503 675.447 536.168 675.486C538.997 664.62 543.538 653.78 547.686 643.347Z"/><path fill="#115C8E" d="M546.139 676.768C548.719 679.012 546.702 682.203 548.185 684.705C549.2 686.416 554.585 684.287 556.518 684.559L556.469 685.078C554.444 686.822 552.116 687.788 549.709 688.88C552.211 693.119 555.427 696.772 557.624 701.221C553.682 698.224 550.081 694.618 546.697 691.009C545.431 691.969 544.278 693.108 543.106 694.182C540.587 696.51 538.265 699.013 535.92 701.514C537.603 697.607 539.36 693.782 541.301 689.996C536.33 688.266 531.636 686.107 527.029 683.567C532.684 683.9 538.145 684.645 543.713 685.647L546.139 676.768Z"/><path fill="#E4FAFF" d="M639.584 645.791C642.221 648.674 649.753 670.074 651.879 675.524C662.311 674.017 674.007 675.351 684.554 675.679C676.639 682.839 667.711 688.693 659.098 694.957C660.819 706.137 664.456 716.919 666.028 728.164Q652.92 719.449 640.273 710.077L639.474 709.357C636.425 709.122 617.127 723.287 612.96 726.072C615.588 716.208 619.082 706.609 621.711 696.743C613.246 689.956 603.857 683.438 596.123 675.865C606.695 674.854 617.753 675.521 628.362 675.756C631.502 665.426 634.774 655.495 639.584 645.791Z"/><path fill="#115C8E" d="M638.101 677.33C639.004 680.577 638.382 683.614 640.024 686.826C641.137 687.255 651.011 684.911 653.54 684.691C649.672 687.305 645.356 689.335 641.22 691.493C643.524 695.276 645.616 699.097 647.604 703.054C645.081 700.304 641.969 695.025 638.382 693.79L635.983 693.287C633.263 694.134 630.53 700.292 628.587 702.71C629.736 698.573 631.483 694.89 633.341 691.03C628.433 688.944 624.035 686.701 619.711 683.561C622.068 683.614 624.699 683.511 627.015 683.954C629.418 684.415 631.907 685.812 634.361 685.504C636.39 683.871 637.244 679.772 638.101 677.33Z"/><path fill="#E4FAFF" d="M733.594 643.846C737.437 650.783 741.216 667.067 743.724 675.482Q759.469 675.433 775.201 676.061C767.963 683.578 758.732 690.085 750.245 696.139C753.409 706.391 755.675 717.137 757.336 727.734C752.132 724.801 747.35 721.5 742.55 717.957C739.327 715.578 735.32 711.877 731.689 710.292C730.471 709.761 729.79 710.543 728.778 711.143C720.475 716.749 712.075 722.182 704.093 728.246C705.166 719.028 710.594 704.319 713.463 694.897C705.228 688.265 696.499 682.328 688.448 675.442Q704.481 675.306 720.514 675.403C724.292 664.681 728.058 653.808 733.594 643.846Z"/><path fill="#115C8E" d="M730.52 677.306C731.6 680.188 731.441 683.59 731.552 686.632C736.97 686.383 742.426 685.304 747.772 684.398C743.689 686.864 739.457 688.779 735.048 690.584C737.635 696.257 741.128 700.914 744.825 705.894C740.561 701.83 736.415 697.72 732.408 693.4L730.981 692.629C728.143 693.332 725.189 699.235 723.397 701.747C724.157 697.681 725.536 693.983 726.99 690.126C720.741 687.905 715.742 685.092 710.242 681.46C716.386 682.565 722.291 683.941 728.205 685.963L730.52 677.306Z"/><defs><linearGradient id="gradient_1" gradientUnits="userSpaceOnUse" x1="689.27515" y1="677.37482" x2="281.98331" y2="284.68271"><stop offset="0" stop-color="#0F5889"/><stop offset="1" stop-color="#1C77B0"/></linearGradient></defs><path fill="url(#gradient_1)" d="M535.87 220.75L589.994 220.932C604.316 220.974 618.746 220.626 633.027 221.844Q636.942 222.186 640.841 222.674Q644.74 223.162 648.618 223.794Q652.496 224.427 656.348 225.203Q660.2 225.98 664.021 226.899Q667.841 227.818 671.625 228.879Q675.408 229.94 679.15 231.141Q682.891 232.342 686.585 233.681Q690.279 235.021 693.921 236.496Q697.563 237.972 701.147 239.583Q704.732 241.193 708.254 242.936Q711.775 244.679 715.23 246.551Q718.685 248.424 722.067 250.424Q725.45 252.424 728.755 254.548Q732.061 256.673 735.285 258.919Q738.51 261.164 741.648 263.529Q744.787 265.893 747.835 268.373C795.206 306.194 823.254 358.969 829.856 419.026Q830.576 426.086 830.831 433.177Q831.086 440.269 830.876 447.362Q830.665 454.455 829.99 461.519Q829.314 468.583 828.177 475.588C820.802 522.182 802.126 556.55 772.82 593.12C767.003 589.343 761.619 584.944 755.707 581.27C725.861 562.725 693.43 551.196 658.346 548.077C606.645 543.481 548.625 557.052 508.366 590.782C487.67 608.122 469.778 630.751 462.285 657.05C461.18 660.93 459.941 665.021 459.616 669.046C459.437 671.266 459.381 673.049 458.232 675.001C456.786 675.973 456.048 675.83 454.336 675.91C432.244 676.468 413.026 674.539 391.255 671.321C381.108 676.839 371.716 683.765 361.483 689.259C323.902 709.435 289.806 716.625 247.937 721.632C270.537 695.598 286.209 672.814 297.279 639.672C299.155 634.056 301.972 627.379 301.87 621.401C301.856 620.596 301.782 619.912 301.451 619.163C299.927 615.719 286.124 604.935 282.417 601.308Q280.472 599.4 278.574 597.444Q276.676 595.489 274.827 593.488Q272.977 591.486 271.177 589.441Q269.377 587.395 267.628 585.306Q265.878 583.217 264.18 581.086Q262.482 578.955 260.836 576.783Q259.191 574.611 257.599 572.399Q256.007 570.188 254.469 567.938Q252.932 565.688 251.45 563.401Q249.968 561.115 248.542 558.793Q247.116 556.471 245.747 554.114Q244.378 551.758 243.068 549.369Q241.757 546.98 240.505 544.56Q239.253 542.14 238.06 539.69Q236.868 537.239 235.735 534.761Q234.603 532.282 233.531 529.777Q232.46 527.272 231.45 524.741Q230.44 522.21 229.492 519.655Q228.544 517.1 227.659 514.523Q226.774 511.946 225.951 509.348Q225.129 506.75 224.371 504.133Q223.613 501.516 222.918 498.881Q222.224 496.246 221.595 493.594Q220.965 490.943 220.4 488.277Q219.835 485.612 219.336 482.933Q218.836 480.254 218.402 477.564Q217.969 474.874 217.6 472.174Q217.232 469.474 216.93 466.766Q216.628 464.057 216.392 461.343Q216.156 458.628 215.987 455.908Q215.818 453.189 215.715 450.466Q215.611 447.743 215.575 445.018Q215.551 442.284 215.593 439.55Q215.635 436.816 215.745 434.085Q215.854 431.353 216.029 428.624Q216.205 425.896 216.447 423.172Q216.689 420.449 216.998 417.732Q217.306 415.016 217.681 412.307Q218.056 409.599 218.496 406.901Q218.937 404.202 219.443 401.515Q219.95 398.829 220.521 396.155Q221.093 393.481 221.73 390.822Q222.367 388.163 223.068 385.521Q223.769 382.878 224.535 380.254Q225.301 377.629 226.13 375.024Q226.96 372.418 227.853 369.834Q228.745 367.25 229.701 364.688Q230.656 362.126 231.674 359.589Q232.692 357.051 233.771 354.539Q234.85 352.027 235.991 349.542Q237.131 347.057 238.332 344.601Q239.532 342.144 240.792 339.718Q242.052 337.292 243.371 334.897Q244.69 332.502 246.067 330.14Q247.444 327.777 248.878 325.45Q250.313 323.122 251.803 320.83Q253.294 318.538 254.84 316.283Q256.386 314.028 257.986 311.811Q259.587 309.594 261.241 307.417Q262.895 305.24 264.602 303.104Q266.308 300.968 268.067 298.875Q269.825 296.781 271.634 294.731Q273.443 292.68 275.301 290.675Q277.159 288.67 279.066 286.71Q280.74 285.008 282.45 283.343Q284.161 281.678 285.907 280.05Q287.653 278.422 289.434 276.832Q291.214 275.242 293.029 273.692Q294.844 272.141 296.692 270.63Q298.54 269.119 300.42 267.648Q302.301 266.177 304.212 264.747Q306.124 263.318 308.066 261.93Q310.008 260.541 311.98 259.196Q313.951 257.85 315.952 256.547Q317.952 255.245 319.98 253.986Q322.008 252.726 324.063 251.512Q326.118 250.297 328.199 249.126Q330.279 247.956 332.385 246.831Q334.49 245.706 336.62 244.627Q338.749 243.548 340.901 242.516Q343.054 241.483 345.228 240.497Q347.402 239.511 349.597 238.573Q351.791 237.634 354.006 236.743Q356.221 235.852 358.454 235.009Q360.688 234.167 362.939 233.372Q365.19 232.578 367.458 231.833Q369.726 231.088 372.009 230.391Q374.293 229.695 376.59 229.049Q378.888 228.402 381.2 227.806Q383.511 227.209 385.835 226.663Q388.159 226.116 390.494 225.62Q392.829 225.124 395.174 224.679Q397.519 224.233 399.874 223.839Q402.228 223.444 404.59 223.101Q406.953 222.758 409.322 222.465Q411.691 222.173 414.066 221.932C429.56 220.322 445.397 220.978 460.962 220.967L535.87 220.75Z"/><path fill="#E4FAFF" d="M508.287 290.714C513.762 290.363 519.585 290.909 525.03 291.497Q527.473 291.747 529.906 292.085Q532.339 292.424 534.757 292.852Q537.176 293.279 539.577 293.795Q541.978 294.311 544.359 294.914Q546.74 295.518 549.097 296.208Q551.454 296.898 553.784 297.674Q556.115 298.45 558.415 299.31Q560.716 300.171 562.983 301.115Q565.25 302.059 567.481 303.086Q569.713 304.112 571.905 305.22Q574.097 306.328 576.247 307.515Q578.397 308.702 580.503 309.966Q582.608 311.231 584.666 312.572Q586.723 313.913 588.73 315.329Q590.738 316.744 592.692 318.232Q594.646 319.72 596.544 321.279C623.682 343.484 642.411 376.417 645.69 411.494C648.876 445.575 639.266 481.47 617.074 507.907C591.176 538.76 558.29 553.934 518.508 557.36C481.579 558.272 448.627 545.855 421.101 521.429Q419.927 520.373 418.778 519.289Q417.63 518.204 416.509 517.092Q415.387 515.98 414.293 514.841Q413.2 513.701 412.134 512.536Q411.068 511.37 410.031 510.179Q408.994 508.987 407.987 507.771Q406.98 506.555 406.002 505.314Q405.025 504.074 404.078 502.809Q403.131 501.545 402.216 500.258Q401.3 498.971 400.416 497.663Q399.532 496.354 398.681 495.024Q397.829 493.693 397.01 492.343Q396.191 490.992 395.406 489.622Q394.62 488.252 393.869 486.863Q393.117 485.474 392.399 484.067Q391.681 482.66 390.998 481.236Q390.315 479.812 389.667 478.372Q389.019 476.932 388.407 475.476Q387.794 474.02 387.217 472.55Q386.64 471.08 386.1 469.596Q385.559 468.112 385.055 466.615Q384.55 465.118 384.083 463.61Q383.615 462.101 383.185 460.582Q382.754 459.062 382.361 457.533Q381.968 456.003 381.612 454.464Q381.256 452.925 380.938 451.378Q380.62 449.831 380.34 448.277Q380.06 446.723 379.818 445.162Q379.576 443.601 379.372 442.035Q379.168 440.469 379.003 438.898Q378.837 437.327 378.71 435.753Q378.583 434.179 378.495 432.602C376.441 396.019 387.814 362.196 412.301 334.806C437.809 306.274 470.655 292.912 508.287 290.714Z"/><path fill="#E4FAFF" d="M505.835 319.669C505.899 319.659 505.961 319.645 506.025 319.638Q507.318 319.494 508.617 319.415Q509.916 319.337 511.217 319.323Q512.518 319.31 513.818 319.362Q515.118 319.414 516.414 319.531Q517.71 319.648 518.998 319.83Q520.286 320.012 521.564 320.258Q522.842 320.505 524.105 320.815Q525.369 321.125 526.615 321.499Q527.862 321.872 529.088 322.307Q530.314 322.743 531.516 323.239Q532.719 323.736 533.896 324.292Q535.072 324.848 536.219 325.462Q537.365 326.077 538.48 326.748Q539.595 327.42 540.674 328.146Q541.754 328.873 542.795 329.652Q543.837 330.432 544.838 331.263C555.788 340.324 561.806 352.492 562.455 366.652C562.788 373.906 562.335 381.219 563.087 388.449L563.177 389.267C565.909 390.766 568.625 392.243 571.002 394.283C575.388 398.049 577.622 402.696 577.955 408.404C578.307 414.444 578.041 420.582 578.051 426.636L578.116 459.84L578.108 484.824C578.093 489.932 578.378 495.483 577.586 500.525C576.993 504.296 574.89 508.075 572.309 510.849C569.653 513.703 566.425 515.588 562.658 516.567C554.554 518.671 528.921 517.477 518.694 517.693C508.259 517.821 497.816 517.643 487.379 517.699C480.423 517.736 473.118 518.216 466.2 517.57C463.761 517.342 461.35 516.871 459.062 515.973C454.089 514.022 449.731 509.829 447.616 504.924C446.595 502.554 446.281 500.14 446.103 497.594C445.125 483.642 445.878 469.161 445.858 455.159C445.836 440.37 445.096 425.174 446.013 410.425C446.172 407.866 446.367 405.022 447.327 402.626C450.014 395.919 455.415 392.447 461.704 389.609C461.101 371.428 459.32 355.084 470.884 339.672C479.872 327.694 491.151 321.72 505.835 319.669Z"/><path fill="#115C8E" d="M507.365 338.616Q509.463 338.362 511.575 338.307C519.848 338.106 527.549 340.959 533.524 346.731C545.132 357.946 542.924 374.74 542.957 389.44L518.625 389.437Q499.856 389.233 481.086 389.395C480.844 376.656 478.885 362.09 486.352 350.936C491.518 343.219 498.574 340.295 507.365 338.616Z"/><path fill="#115C8E" d="M470.347 409.16C487.171 408.855 504.088 409.164 520.924 409.084C530.726 409.038 541.111 408.141 550.848 408.978C553.187 409.179 555.358 409.489 557.307 410.862C558.19 412.99 558.335 415.373 558.466 417.658C559.381 433.511 558.763 449.778 558.79 465.675C558.804 474.004 559.834 486.917 558.333 494.703C557.358 496.061 556.49 496.413 555.005 497.011Q525.645 496.823 496.284 496.933C488.669 496.969 479.513 497.967 472.166 497.408C470.145 497.255 468.382 496.978 466.815 495.615C466.138 493.291 465.922 490.895 465.803 488.487C465.447 481.264 464.689 414.573 466.358 411.635C467.34 409.907 468.556 409.586 470.347 409.16Z"/><path fill="#E4FAFF" d="M510.521 420.588C512.519 420.502 514.398 420.718 516.343 421.196C521.123 422.373 525.314 425.253 527.746 429.584Q527.958 429.962 528.149 430.35Q528.341 430.738 528.513 431.136Q528.684 431.533 528.835 431.939Q528.986 432.345 529.115 432.759Q529.245 433.172 529.353 433.591Q529.461 434.01 529.547 434.435Q529.633 434.859 529.698 435.288Q529.762 435.716 529.804 436.147Q529.846 436.578 529.865 437.01Q529.885 437.443 529.882 437.876Q529.879 438.309 529.854 438.741Q529.829 439.174 529.781 439.604Q529.734 440.034 529.664 440.462Q529.594 440.889 529.503 441.312Q529.411 441.736 529.297 442.154Q529.184 442.572 529.049 442.983C527.33 448.146 523.461 451.433 518.755 453.845C519.858 460.815 524.132 480.781 520.085 486.209C518.436 488.421 516.165 488.513 513.624 488.846C510.306 488.864 506.514 489.135 503.972 486.633C502.594 485.276 501.953 483.559 501.756 481.659C501.123 475.535 504.462 461.87 504.631 453.946C503.938 453.594 503.253 453.248 502.589 452.841C498.653 450.43 495.57 446.229 494.543 441.723Q494.357 440.925 494.251 440.113Q494.146 439.301 494.121 438.482Q494.096 437.663 494.153 436.846Q494.209 436.029 494.346 435.221Q494.484 434.414 494.7 433.624Q494.917 432.834 495.211 432.069Q495.505 431.305 495.873 430.573Q496.241 429.842 496.68 429.15C499.915 424.068 504.873 421.865 510.521 420.588Z"/></svg>